<svg width="67" height="76" viewBox="0 0 67 76" fill="none" xmlns="http://www.w3.org/2000/svg">
<g id="Group 48105500">
<g id="Group 19939">
<path id="Vector 825" d="M54.357 12.4429L51.0361 14.8969L54.48 8.88446L54.726 2.74927L56.3249 7.1666L61.1218 7.41201L57.1859 10.4796L58.7848 14.7742L58.4159 15.0196L54.357 12.4429Z" fill="#87879D"/>
<path id="Vector" d="M61.3323 7.29674C61.2879 7.16057 61.2007 7.04201 61.0835 6.95793C60.9663 6.87385 60.8252 6.8287 60.6804 6.82895H60.6791L56.4348 6.83701L55.1312 2.8476C55.0714 2.66468 54.9357 2.51549 54.7579 2.43711C54.5802 2.35886 54.377 2.35886 54.1994 2.43711C54.0216 2.51549 53.8858 2.66467 53.8261 2.8476L52.5223 6.83701L48.278 6.82895H48.2766C48.0821 6.82883 47.8968 6.91043 47.7667 7.05317C47.6366 7.19603 47.5741 7.38665 47.5947 7.57764C47.6153 7.76874 47.7171 7.9421 47.8747 8.05458L51.3128 10.5122L49.9939 14.4965C49.9333 14.6792 49.9543 14.8787 50.0514 15.0453C50.1486 15.2118 50.3129 15.3297 50.5032 15.3696C50.6937 15.4094 50.8922 15.3675 51.0494 15.2541L54.4786 12.7836L57.9078 15.2549C58.065 15.3682 58.2635 15.4101 58.454 15.3703C58.6443 15.3305 58.8085 15.2126 58.9057 15.046C59.0029 14.8795 59.0239 14.6799 58.9633 14.4973L57.644 10.5123L61.0821 8.05458C61.1999 7.97088 61.2875 7.85232 61.3326 7.71603C61.3776 7.57986 61.3776 7.4329 61.3325 7.29674H61.3323ZM57.2014 9.95078C57.0835 10.0346 56.9959 10.1534 56.9509 10.29C56.9061 10.4264 56.9064 10.5735 56.9517 10.7098L58.2456 14.6176L54.8827 12.1946C54.7655 12.1097 54.624 12.0639 54.4786 12.0639C54.3332 12.0639 54.1917 12.1097 54.0746 12.1946L50.7116 14.6175L52.0057 10.7096V10.7098C52.051 10.5735 52.0513 10.4264 52.0065 10.29C51.9615 10.1534 51.8739 10.0346 51.756 9.95077L48.3834 7.5403L52.5461 7.54811H52.5474C52.6926 7.54849 52.8342 7.50334 52.9516 7.41902C53.069 7.33469 53.1563 7.21563 53.2006 7.07909L54.4787 3.1662L55.7569 7.07909V7.07922C55.8012 7.21563 55.8885 7.33469 56.0059 7.41889C56.1234 7.50321 56.2649 7.54836 56.4101 7.54798H56.4113L60.574 7.54017L57.2014 9.95078Z" fill="white"/>
</g>
<g id="Group 19940">
<path id="Vector 850" d="M4.81504 33.9087L2.44922 35.657L4.90266 31.3737L5.07791 27.0029L6.21701 30.1499L9.6343 30.3247L6.83037 32.5101L7.96946 35.5696L7.7066 35.7444L4.81504 33.9087Z" fill="#87879D"/>
<path id="Vector_2" d="M9.78955 30.2451C9.75789 30.1481 9.69581 30.0636 9.61226 30.0037C9.5288 29.9438 9.42825 29.9116 9.32512 29.9118H9.32422L6.30052 29.9176L5.37181 27.0755C5.32923 26.9451 5.23253 26.8389 5.10587 26.783C4.9793 26.7273 4.83455 26.7273 4.70799 26.783C4.58132 26.8389 4.48462 26.9451 4.44205 27.0755L3.51325 29.9176L0.489544 29.9118H0.48856C0.349997 29.9117 0.217974 29.9699 0.125298 30.0715C0.0326247 30.1733 -0.0119227 30.3091 0.00274701 30.4452C0.0174172 30.5813 0.0899638 30.7048 0.202226 30.785L2.6516 32.5358L1.712 35.3742C1.66879 35.5044 1.68373 35.6465 1.75297 35.7652C1.8222 35.8838 1.93921 35.9678 2.07482 35.9962C2.21052 36.0246 2.35196 35.9947 2.46394 35.914L4.9069 34.154L7.34987 35.9145C7.46186 35.9952 7.60328 36.0251 7.73898 35.9967C7.8746 35.9684 7.99159 35.8844 8.06084 35.7657C8.13008 35.6471 8.14502 35.5049 8.10181 35.3748L7.16193 32.5359L9.61131 30.785C9.69522 30.7253 9.75765 30.6409 9.78977 30.5438C9.82179 30.4468 9.82179 30.3421 9.78968 30.2451H9.78955ZM6.84668 32.1358C6.76269 32.1955 6.70025 32.2802 6.66823 32.3775C6.63629 32.4746 6.63647 32.5794 6.66876 32.6765L7.59058 35.4605L5.19479 33.7343C5.11133 33.6738 5.01051 33.6412 4.90693 33.6412C4.80335 33.6412 4.70253 33.6738 4.61908 33.7343L2.22329 35.4604L3.1452 32.6764V32.6765C3.17749 32.5794 3.17767 32.4747 3.14573 32.3775C3.11371 32.2802 3.05127 32.1956 2.96727 32.1358L0.564613 30.4186L3.53015 30.4241H3.53114C3.63454 30.4244 3.73545 30.3923 3.81908 30.3322C3.90272 30.2721 3.96489 30.1873 3.99647 30.09L4.90701 27.3024L5.81756 30.09V30.0901C5.84914 30.1873 5.91131 30.2721 5.99495 30.3321C6.07867 30.3922 6.17949 30.4243 6.28289 30.4241H6.28378L9.24932 30.4185L6.84668 32.1358Z" fill="white"/>
</g>
<g id="Group 18977">
<path id="Vector 850_2" d="M44.9913 4.74909L43.4248 5.9067L45.0493 3.07055L45.1654 0.176514L45.9196 2.26022L48.1823 2.37598L46.3257 3.82299L47.08 5.84882L46.9059 5.96458L44.9913 4.74909Z" fill="#87879D"/>
<path id="Vector_3" d="M48.2779 2.32002C48.2569 2.25579 48.2158 2.19987 48.1605 2.1602C48.1053 2.12054 48.0387 2.09925 47.9704 2.09936H47.9698L45.9677 2.10317L45.3528 0.22132C45.3246 0.135034 45.2605 0.0646591 45.1767 0.0276841C45.0929 -0.00922803 44.997 -0.00922803 44.9132 0.0276841C44.8294 0.0646561 44.7653 0.13503 44.7371 0.22132L44.1221 2.10317L42.12 2.09936H42.1194C42.0276 2.09931 41.9402 2.1378 41.8789 2.20513C41.8175 2.27252 41.788 2.36243 41.7977 2.45253C41.8074 2.54267 41.8555 2.62445 41.9298 2.67751L43.5516 3.83678L42.9295 5.71623C42.9009 5.8024 42.9108 5.89652 42.9566 5.97508C43.0024 6.05365 43.0799 6.10928 43.1697 6.12806C43.2596 6.14684 43.3532 6.12707 43.4274 6.0736L45.0449 4.90825L46.6625 6.07396C46.7367 6.12743 46.8303 6.1472 46.9202 6.12842C47.0099 6.10964 47.0874 6.05401 47.1333 5.97544C47.1791 5.89688 47.189 5.80276 47.1604 5.71659L46.5381 3.83684L48.1599 2.67751C48.2154 2.63802 48.2568 2.5821 48.278 2.51781C48.2993 2.45358 48.2993 2.38425 48.278 2.32002H48.2779ZM46.3293 3.57196C46.2737 3.61151 46.2324 3.66755 46.2112 3.73196C46.19 3.79631 46.1901 3.86569 46.2115 3.92999L46.8219 5.77335L45.2355 4.6304C45.1803 4.59033 45.1135 4.56874 45.045 4.56874C44.9764 4.56874 44.9096 4.59033 44.8544 4.6304L43.268 5.77329L43.8784 3.92993V3.92999C43.8998 3.86569 43.8999 3.79631 43.8788 3.73196C43.8576 3.66755 43.8163 3.61151 43.7606 3.57196L42.1697 2.43492L44.1333 2.4386H44.134C44.2025 2.43878 44.2693 2.41748 44.3246 2.3777C44.38 2.33793 44.4212 2.28177 44.4421 2.21736L45.045 0.371604L45.6479 2.21736V2.21742C45.6688 2.28177 45.71 2.33793 45.7654 2.37764C45.8208 2.41742 45.8876 2.43871 45.956 2.43854H45.9566L47.9202 2.43485L46.3293 3.57196Z" fill="white"/>
</g>
<path id="Vector_4" d="M64.4173 20.4726C64.4137 20.2724 64.3324 20.0814 64.1905 19.9398C64.0485 19.7982 63.8571 19.7171 63.6564 19.7135C52.9693 19.5253 43.5 22.0913 36.2728 27.1385C32.5613 29.7234 29.3963 33.0119 26.9582 36.8166C26.9334 36.8553 26.9097 36.8953 26.8854 36.9334L16.5096 37.0914C16.389 37.0932 16.2706 37.1231 16.1636 37.1787C16.0567 37.2343 15.9643 37.3141 15.8937 37.4116L8.14405 48.1097C8.06039 48.225 8.01031 48.3612 7.99935 48.5032C7.9884 48.6451 8.01699 48.7874 8.08197 48.9141C8.14695 49.0409 8.24579 49.1473 8.36757 49.2215C8.48935 49.2958 8.62934 49.335 8.77206 49.3349C8.86515 49.335 8.95748 49.3182 9.0445 49.2852L18.5654 45.7089L22.1368 48.0092C21.9346 48.7816 21.7511 49.5661 21.5865 50.3627C21.561 50.488 21.5669 50.6176 21.6038 50.74C21.6406 50.8624 21.7072 50.9738 21.7976 51.0643L23.4832 52.7453C20.1624 55.0722 18.555 59.154 18.9422 64.3677C18.9559 64.5524 19.0357 64.7261 19.167 64.8571C19.2983 64.9881 19.4724 65.0677 19.6575 65.0814C20.1685 65.1189 20.668 65.1377 21.1563 65.1377C25.664 65.1377 29.2009 63.5402 31.3051 60.5511L32.9902 62.2327C33.1352 62.3768 33.3315 62.458 33.5362 62.4585C33.5884 62.4586 33.6404 62.4535 33.6916 62.4434C34.4909 62.2819 35.2773 62.0989 36.0507 61.8943L38.3564 65.4573L34.7753 74.955C34.7165 75.1104 34.7095 75.2805 34.7554 75.4401C34.8012 75.5998 34.8973 75.7405 35.0296 75.8413C35.1619 75.9421 35.3232 75.9977 35.4896 75.9999C35.6561 76.0021 35.8188 75.9507 35.9536 75.8533L46.6771 68.1238C46.7749 68.0534 46.8549 67.9612 46.9106 67.8545C46.9663 67.7479 46.9963 67.6297 46.9981 67.5094L47.1565 57.1582C47.1947 57.1334 47.2347 57.1104 47.273 57.0856C51.0872 54.653 54.3838 51.4948 56.9746 47.7913C62.0339 40.5812 64.609 31.1343 64.4173 20.4726ZM38.8564 59.4209L24.6155 45.2144C24.9484 44.2733 25.3137 43.3572 25.7113 42.4662L41.6087 58.3259C40.7164 58.7234 39.7989 59.0884 38.8564 59.4209ZM19.0757 44.1992C18.9739 44.1337 18.8581 44.093 18.7377 44.0801C18.6172 44.0673 18.4955 44.0828 18.3821 44.1254L10.9061 46.9347L16.9198 38.6308L25.9492 38.4934C24.5319 41.0135 23.4 43.6831 22.5743 46.4529L19.0757 44.1992ZM20.4464 63.5778C20.2746 59.1528 21.7327 55.7417 24.5961 53.8597L30.1875 59.4379C28.3028 62.2944 24.8843 63.7485 20.4488 63.5778H20.4464ZM23.1871 50.2689C23.4375 49.101 23.732 47.9642 24.0706 46.8585L37.2078 59.9621C36.0995 60.2987 34.9599 60.5924 33.7893 60.8435L23.1871 50.2689ZM45.4551 67.1014L37.1314 73.0978L39.9474 65.6371C39.9901 65.524 40.0056 65.4025 39.9928 65.2824C39.9799 65.1622 39.939 65.0467 39.8734 64.9452L37.6138 61.4573C40.3904 60.6336 43.0665 59.5044 45.5928 58.0904L45.4551 67.1014ZM43.099 57.6267L26.4127 40.9801C32.705 28.4285 45.577 21.2492 62.546 21.2492H62.8755C62.9708 38.3426 55.7629 51.3095 43.099 57.6267ZM41.8502 32.2893C40.8653 33.272 40.1945 34.5241 39.9228 35.8871C39.6511 37.2501 39.7906 38.6629 40.3237 39.9469C40.8568 41.2308 41.7596 42.3282 42.9179 43.1002C44.0762 43.8723 45.4379 44.2844 46.8309 44.2844C48.2239 44.2844 49.5857 43.8723 50.744 43.1002C51.9022 42.3282 52.805 41.2308 53.3381 39.9469C53.8712 38.6629 54.0108 37.2501 53.739 35.8871C53.4673 34.5241 52.7966 33.272 51.8116 32.2893C50.4897 30.9733 48.6984 30.2342 46.8309 30.2342C44.9634 30.2342 43.1722 30.9733 41.8502 32.2893ZM50.714 41.1326C49.9457 41.8983 48.9671 42.4196 47.9019 42.6306C46.8368 42.8416 45.7328 42.7328 44.7296 42.318C43.7264 41.9032 42.8689 41.2009 42.2657 40.3C41.6625 39.3992 41.3405 38.3401 41.3405 37.2567C41.3405 36.1733 41.6625 35.1142 42.2657 34.2133C42.8689 33.3124 43.7264 32.6102 44.7296 32.1953C45.7328 31.7805 46.8368 31.6717 47.9019 31.8827C48.9671 32.0937 49.9457 32.615 50.714 33.3807C51.7429 34.4095 52.3208 35.8034 52.3208 37.2567C52.3208 38.71 51.7429 40.1039 50.714 41.1326Z" fill="white"/>
<ellipse id="Ellipse 1099" cx="0.525521" cy="0.526456" rx="0.525521" ry="0.526456" transform="matrix(0.35548 -0.934684 -0.935243 -0.354007 66.627 25.6318)" fill="#87879D"/>
<ellipse id="Ellipse 9245" cx="46.8324" cy="37.2555" rx="6.06772" ry="6.05333" fill="#87879D"/>
<path id="Vector 1522 (Stroke)" fill-rule="evenodd" clip-rule="evenodd" d="M66.2597 26.5457C66.4931 26.555 66.6748 26.7513 66.6656 26.9843C65.9309 45.5518 55.1318 55.5307 49.7458 58.2173C49.5369 58.3215 49.2829 58.2369 49.1785 58.0283C49.0741 57.8197 49.1588 57.5661 49.3678 57.4619C54.4991 54.9023 65.0989 45.1877 65.8204 26.951C65.8297 26.718 66.0263 26.5365 66.2597 26.5457Z" fill="#87879D"/>
<path id="Vector 1523" d="M45.8064 57.8438L44.7142 58.3885L44.4108 66.3184L37.7363 71.1611L36.8262 73.5824L45.6244 67.2264L45.8064 57.8438Z" fill="#87879D"/>
<path id="Vector 1524" d="M26.2031 38.4656L25.657 39.5552L17.7083 39.8579L12.8541 46.5166L10.4271 47.4246L16.7982 38.6472L26.2031 38.4656Z" fill="#87879D"/>
</g>
</svg>
