<svg width="107" height="69" viewBox="0 0 107 69" fill="none" xmlns="http://www.w3.org/2000/svg">
<path d="M103.438 24.2092H103.229C102.737 24.2092 102.273 24.3286 101.864 24.5398C101.625 23.1305 100.395 22.0538 98.9189 22.0538H98.7098C98.1583 22.0538 97.6414 22.204 97.1973 22.4655C96.7727 21.3327 95.6786 20.5243 94.399 20.5243H94.1903C93.7149 20.5243 93.2658 20.6358 92.8666 20.8337V16.2468C92.8666 14.6001 91.5267 13.2598 89.8795 13.2598H89.6708C88.024 13.2598 86.6837 14.5996 86.6837 16.2468V27.6471L85.2369 28.7453C84.1399 29.5783 83.4442 30.7901 83.2783 32.1574C83.1127 33.5252 83.4982 34.8684 84.3645 35.9392L88.7742 41.3906V43.5834C88.7742 44.8318 89.7897 45.8473 91.0381 45.8473H101.989C103.238 45.8473 104.253 44.8318 104.253 43.5834L104.254 41.5004C105.655 39.7526 106.423 37.5777 106.423 35.342V27.1955C106.425 25.5491 105.085 24.2092 103.438 24.2092ZM104.762 35.3424C104.762 37.2861 104.062 39.1745 102.791 40.66C102.662 40.8105 102.592 41.0022 102.592 41.2006V43.5834C102.592 43.9149 102.323 44.1839 101.991 44.1839H91.0393C90.7083 44.1839 90.4388 43.9149 90.4388 43.5834V41.0962C90.4388 40.9057 90.3736 40.7211 90.2538 40.5731L85.6586 34.8929C85.0781 34.1747 84.819 33.2744 84.9304 32.3574C85.0415 31.4409 85.5081 30.6283 86.2433 30.0698L86.6841 29.7355V32.5151C86.6841 32.9742 87.0567 33.3468 87.5158 33.3468C87.9749 33.3468 88.3475 32.9742 88.3475 32.5151V28.0683C88.3475 28.0625 88.3475 28.0567 88.3475 28.0509V16.2468C88.3475 15.517 88.9414 14.9232 89.6712 14.9232H89.8799C90.6098 14.9232 91.2036 15.517 91.2036 16.2468V23.5114C91.2036 23.5114 91.2036 23.5114 91.2036 23.5118C91.2036 23.5114 91.2036 23.5122 91.2036 23.5118L91.2082 29.555C91.2086 30.0141 91.5808 30.3859 92.0399 30.3859C92.499 30.3855 92.872 30.0133 92.8716 29.5533L92.867 23.5118C92.867 22.7824 93.4609 22.1886 94.1907 22.1886H94.3994C95.1293 22.1886 95.7231 22.7824 95.7231 23.5118V25.0413V25.0422L95.7277 29.5554C95.7281 30.0145 96.1003 30.3863 96.5594 30.3863C96.5598 30.3863 96.5598 30.3863 96.5602 30.3863C97.0193 30.3859 97.3915 30.0133 97.3911 29.5538L97.3865 25.0413C97.3865 24.3119 97.9804 23.7181 98.7102 23.7181H98.9194C99.6492 23.7181 100.243 24.3119 100.243 25.0413V26.9551C100.24 26.985 100.234 27.0146 100.234 27.0453L100.239 29.5558C100.24 30.0145 100.612 30.3859 101.071 30.3859C101.071 30.3859 101.071 30.3859 101.072 30.3859C101.531 30.3851 101.903 30.012 101.902 29.5525L101.898 27.2807C101.901 27.2524 101.906 27.2254 101.906 27.1963C101.906 26.4665 102.5 25.8726 103.23 25.8726H103.439C104.169 25.8726 104.763 26.4665 104.763 27.1963V35.3424H104.762Z" fill="#005E9C"/>
<path fill-rule="evenodd" clip-rule="evenodd" d="M89.8922 7.46224C85.8082 7.46224 82.4974 10.773 82.4974 14.8571C82.4974 17.3759 83.756 19.6009 85.6824 20.9375C86.0598 21.1993 86.1535 21.7175 85.8916 22.0949C85.6298 22.4723 85.1116 22.566 84.7342 22.3042C82.379 20.6701 80.834 17.9441 80.834 14.8571C80.834 9.85433 84.8895 5.79883 89.8922 5.79883C94.8949 5.79883 98.9504 9.85433 98.9504 14.8571C98.9504 16.904 98.2705 18.7945 97.1245 20.3118C96.8476 20.6783 96.3261 20.751 95.9595 20.4742C95.593 20.1974 95.5203 19.6758 95.7971 19.3093C96.7326 18.0707 97.287 16.5298 97.287 14.8571C97.287 10.773 93.9763 7.46224 89.8922 7.46224Z" fill="#87090E"/>
<path fill-rule="evenodd" clip-rule="evenodd" d="M97.4533 6.23367C97.7803 5.91113 98.3069 5.91479 98.6295 6.24184C100.814 8.45653 102.163 11.5003 102.163 14.8576C102.163 16.7081 101.753 18.465 101.018 20.0406C100.823 20.4568 100.329 20.6368 99.9123 20.4426C99.496 20.2483 99.316 19.7534 99.5103 19.3372C100.145 17.9773 100.5 16.46 100.5 14.8576C100.5 11.9549 99.3347 9.32594 97.4451 7.40986C97.1226 7.08281 97.1262 6.55621 97.4533 6.23367Z" fill="#B0353A"/>
<path fill-rule="evenodd" clip-rule="evenodd" d="M82.3465 6.23367C82.0195 5.91113 81.4929 5.91479 81.1704 6.24184C78.9862 8.45653 77.6368 11.5003 77.6368 14.8576C77.6368 16.7081 78.047 18.465 78.7821 20.0406C78.9764 20.4568 79.4713 20.6368 79.8875 20.4426C80.3038 20.2483 80.4838 19.7534 80.2895 19.3372C79.655 17.9773 79.3002 16.46 79.3002 14.8576C79.3002 11.9549 80.4651 9.32594 82.3547 7.40986C82.6772 7.08281 82.6736 6.55621 82.3465 6.23367Z" fill="#B0353A"/>
<path fill-rule="evenodd" clip-rule="evenodd" d="M96.1851 0.81965C96.3957 0.411447 96.8973 0.25128 97.3055 0.461906C102.515 3.15011 106.08 8.58624 106.08 14.8564C106.08 17.536 105.429 20.0657 104.275 22.2935C104.063 22.7014 103.561 22.8607 103.153 22.6494C102.746 22.4381 102.586 21.9361 102.798 21.5283C103.832 19.5314 104.417 17.2634 104.417 14.8564C104.417 9.23278 101.221 4.35414 96.5428 1.94014C96.1346 1.72951 95.9744 1.22785 96.1851 0.81965Z" fill="#CD4247"/>
<path fill-rule="evenodd" clip-rule="evenodd" d="M83.6172 0.81965C83.4066 0.411447 82.9049 0.25128 82.4967 0.461906C77.2869 3.15011 73.7218 8.58624 73.7218 14.8564C73.7218 17.536 74.3735 20.0657 75.5277 22.2935C75.739 22.7014 76.2409 22.8607 76.6488 22.6494C77.0566 22.4381 77.2159 21.9361 77.0046 21.5283C75.97 19.5314 75.3852 17.2634 75.3852 14.8564C75.3852 9.23278 78.581 4.35414 83.2595 1.94014C83.6677 1.72951 83.8278 1.22785 83.6172 0.81965Z" fill="#CD4247"/>
<path d="M63.1412 37.5677H68.6912L65.9912 29.7077H65.9312L63.1412 37.5677ZM63.5912 24.4277H68.4212L76.4312 45.8477H71.5412L69.9212 41.0777H61.9112L60.2312 45.8477H55.4912L63.5912 24.4277Z" fill="#233253"/>
<path d="M30.5244 24.4277H37.1544L42.1644 39.1577H42.2244L46.9644 24.4277H53.5944V45.8477H49.1844V30.6677H49.1244L43.8744 45.8477H40.2444L34.9944 30.8177H34.9344V45.8477H30.5244V24.4277Z" fill="#233253"/>
<path d="M21.6768 24.4277H26.3868V45.8477H21.6768V24.4277Z" fill="#233253"/>
<path d="M5.26371 33.0977H10.0337C10.8737 33.0977 11.5637 32.8977 12.1037 32.4977C12.6437 32.0977 12.9137 31.4477 12.9137 30.5477C12.9137 30.0477 12.8237 29.6377 12.6437 29.3177C12.4637 28.9977 12.2237 28.7477 11.9237 28.5677C11.6237 28.3877 11.2737 28.2677 10.8737 28.2077C10.4937 28.1277 10.0937 28.0877 9.67371 28.0877H5.26371V33.0977ZM0.553711 24.4277H10.6337C11.6537 24.4277 12.5837 24.5177 13.4237 24.6977C14.2637 24.8777 14.9837 25.1777 15.5837 25.5977C16.1837 25.9977 16.6437 26.5377 16.9637 27.2177C17.3037 27.8977 17.4737 28.7377 17.4737 29.7377C17.4737 30.8177 17.2237 31.7177 16.7237 32.4377C16.2437 33.1577 15.5237 33.7477 14.5637 34.2077C15.8837 34.5877 16.8637 35.2577 17.5037 36.2177C18.1637 37.1577 18.4937 38.2977 18.4937 39.6377C18.4937 40.7177 18.2837 41.6577 17.8637 42.4577C17.4437 43.2377 16.8737 43.8777 16.1537 44.3777C15.4537 44.8777 14.6437 45.2477 13.7237 45.4877C12.8237 45.7277 11.8937 45.8477 10.9337 45.8477H0.553711V24.4277ZM5.26371 42.1877H10.3037C10.7637 42.1877 11.2037 42.1477 11.6237 42.0677C12.0437 41.9677 12.4137 41.8177 12.7337 41.6177C13.0537 41.3977 13.3037 41.1077 13.4837 40.7477C13.6837 40.3877 13.7837 39.9277 13.7837 39.3677C13.7837 38.2677 13.4737 37.4877 12.8537 37.0277C12.2337 36.5477 11.4137 36.3077 10.3937 36.3077H5.26371V42.1877Z" fill="#233253"/>
<path d="M106.471 61.2289C106.471 63.6456 105.796 65.4456 104.446 66.6289C103.096 67.7956 101.229 68.3789 98.8456 68.3789C96.4289 68.3789 94.5539 67.7956 93.2206 66.6289C91.9039 65.4622 91.2456 63.6622 91.2456 61.2289V50.1289H95.1706V61.2289C95.1706 61.7122 95.2123 62.1872 95.2956 62.6539C95.3789 63.1206 95.5539 63.5372 95.8206 63.9039C96.0873 64.2539 96.4539 64.5456 96.9206 64.7789C97.4039 64.9956 98.0456 65.1039 98.8456 65.1039C100.246 65.1039 101.212 64.7956 101.746 64.1789C102.279 63.5456 102.546 62.5622 102.546 61.2289V50.1289H106.471V61.2289Z" fill="#233253"/>
<path d="M72.7905 50.1289H76.7155V56.9789H83.9405V50.1289H87.8655V67.9789H83.9405V60.2789H76.7155V67.9789H72.7905V50.1289Z" fill="#233253"/>
<path d="M58.1853 64.6789H61.6853C62.2519 64.6789 62.8019 64.5872 63.3353 64.4039C63.8686 64.2206 64.3436 63.9206 64.7603 63.5039C65.1769 63.0706 65.5103 62.5122 65.7603 61.8289C66.0103 61.1456 66.1353 60.3122 66.1353 59.3289C66.1353 58.4289 66.0436 57.6206 65.8603 56.9039C65.6936 56.1706 65.4103 55.5456 65.0103 55.0289C64.6103 54.5122 64.0769 54.1206 63.4103 53.8539C62.7603 53.5706 61.9519 53.4289 60.9853 53.4289H58.1853V64.6789ZM54.2603 50.1289H61.9603C63.1103 50.1289 64.1769 50.3122 65.1603 50.6789C66.1603 51.0456 67.0186 51.5956 67.7353 52.3289C68.4686 53.0622 69.0353 53.9789 69.4353 55.0789C69.8519 56.1789 70.0603 57.4706 70.0603 58.9539C70.0603 60.2539 69.8936 61.4539 69.5603 62.5539C69.2269 63.6539 68.7186 64.6039 68.0353 65.4039C67.3686 66.2039 66.5269 66.8372 65.5103 67.3039C64.5103 67.7539 63.3269 67.9789 61.9603 67.9789H54.2603V50.1289Z" fill="#233253"/>
<path d="M35.73 50.1289H39.63L47.08 62.1039H47.13V50.1289H50.805V67.9789H46.88L39.455 56.0289H39.405V67.9789H35.73V50.1289Z" fill="#233253"/>
<path d="M23.1157 61.0789H27.7407L25.4907 54.5289H25.4407L23.1157 61.0789ZM23.4907 50.1289H27.5157L34.1907 67.9789H30.1157L28.7657 64.0039H22.0907L20.6907 67.9789H16.7407L23.4907 50.1289Z" fill="#233253"/>
<path d="M4.93818 57.3539H8.91318C9.61318 57.3539 10.1882 57.1872 10.6382 56.8539C11.0882 56.5206 11.3132 55.9789 11.3132 55.2289C11.3132 54.8122 11.2382 54.4706 11.0882 54.2039C10.9382 53.9372 10.7382 53.7289 10.4882 53.5789C10.2382 53.4289 9.94652 53.3289 9.61318 53.2789C9.29652 53.2122 8.96318 53.1789 8.61318 53.1789H4.93818V57.3539ZM1.01318 50.1289H9.41318C10.2632 50.1289 11.0382 50.2039 11.7382 50.3539C12.4382 50.5039 13.0382 50.7539 13.5382 51.1039C14.0382 51.4372 14.4215 51.8872 14.6882 52.4539C14.9715 53.0206 15.1132 53.7206 15.1132 54.5539C15.1132 55.4539 14.9049 56.2039 14.4882 56.8039C14.0882 57.4039 13.4882 57.8956 12.6882 58.2789C13.7882 58.5956 14.6049 59.1539 15.1382 59.9539C15.6882 60.7372 15.9632 61.6872 15.9632 62.8039C15.9632 63.7039 15.7882 64.4872 15.4382 65.1539C15.0882 65.8039 14.6132 66.3372 14.0132 66.7539C13.4298 67.1706 12.7549 67.4789 11.9882 67.6789C11.2382 67.8789 10.4632 67.9789 9.66318 67.9789H1.01318V50.1289ZM4.93818 64.9289H9.13818C9.52152 64.9289 9.88818 64.8956 10.2382 64.8289C10.5882 64.7456 10.8965 64.6206 11.1632 64.4539C11.4298 64.2706 11.6382 64.0289 11.7882 63.7289C11.9549 63.4289 12.0382 63.0456 12.0382 62.5789C12.0382 61.6622 11.7799 61.0122 11.2632 60.6289C10.7465 60.2289 10.0632 60.0289 9.21318 60.0289H4.93818V64.9289Z" fill="#233253"/>
</svg>
