<svg width="22" height="22" viewBox="0 0 22 22" fill="none" xmlns="http://www.w3.org/2000/svg">
<g id="Group 48105568">
<path id="Icon" d="M15.7746 9.49797L12.5019 6.22525M3.09277 18.9071L5.8618 18.5994C6.20011 18.5618 6.36927 18.543 6.52737 18.4918C6.66765 18.4464 6.80114 18.3823 6.92423 18.3011C7.06296 18.2096 7.18331 18.0893 7.424 17.8486L18.2292 7.04343C19.1329 6.13969 19.1329 4.67444 18.2292 3.7707C17.3254 2.86696 15.8602 2.86696 14.9564 3.7707L4.15128 14.5758C3.91058 14.8165 3.79024 14.9369 3.69875 15.0756C3.61758 15.1987 3.55342 15.3322 3.50801 15.4725C3.45683 15.6306 3.43803 15.7997 3.40044 16.138L3.09277 18.9071Z" stroke="#36C3D6" stroke-width="1.5" stroke-linecap="round" stroke-linejoin="round"/>
</g>
</svg>
